<?xml version='1.0' encoding='utf-8'?>
<svg xmlns="http://www.w3.org/2000/svg" version="1.1" width="720px" height="1358px" viewBox="0 0 720 1358"> <g id="layer1"> <g> <g style="fill:rgb(0,0,0); fill-opacity:1.0; stroke-linejoin: miter"> <path d="M430.99915,589.8902C430.65222,589.98926,429.83432,590.4354,429.16516,590.88153C427.62863,591.8481,426.98422,591.8481,420.19348,591.1294C417.44254,590.83185,414.98883,590.6585,414.7411,590.7576C414.2206,590.9808,416.32724,591.7242,421.48224,593.1617C423.01877,593.58295,424.5306,594.1035,424.8776,594.3265C425.22452,594.5744,427.38077,597.52356,429.66083,600.9438C431.94095,604.3391,438.0626,613.4843,443.26712,621.2665C453.03195,635.8641,455.53506,639.5074,456.2786,640.35C456.89816,641.0688,457.0965,641.8619,456.77432,642.4814C456.52646,642.9027,456.57605,643.2001,456.89816,643.96844C457.1461,644.4889,457.26993,645.2076,457.19562,645.5794C457.07172,646.2981,457.74088,648.10724,458.63303,649.2721C459.3271,650.2139,460.49185,652.494,460.49185,652.9154C460.46704,653.2127,458.41006,654.675,456.57605,655.66644C456.1051,655.91425,455.783,656.1868,455.8573,656.2364C455.90683,656.3107,457.0965,656.0628,458.4596,655.71594C462.2763,654.74927,462.17712,654.7244,463.88727,657.2525C464.7051,658.4669,465.8947,660.42474,466.53912,661.664C467.2083,662.8784,468.00137,664.2167,468.29877,664.638C468.5962,665.03455,469.26535,666.1498,469.78583,667.1165C470.30627,668.0582,471.00027,669.17346,471.27283,669.5948C471.57025,669.99133,472.14026,670.93304,472.5368,671.6766L473.25555,673.015L472.38812,673.7337C471.91718,674.13025,470.8763,674.84906,470.108,675.34454C468.79453,676.1625,468.19968,676.80695,468.99274,676.5343C472.11548,675.5182,474.17255,674.9481,474.4204,675.072C474.5939,675.1464,475.4613,676.2865,476.35355,677.60004C477.6919,679.5827,478.0885,680.02875,478.708,680.1279C479.99673,680.3511,481.73166,683.00287,482.99567,686.62134C483.56564,688.3067,484.03656,689.7689,484.03656,689.868C484.03656,689.9423,483.68954,690.21497,483.26825,690.43805C482.8469,690.6362,481.6077,691.4046,480.5172,692.0986C478.65845,693.28815,478.55933,693.38727,479.22842,693.4616C479.6002,693.5113,480.9633,693.31287,482.20248,692.99084C484.13562,692.51984,484.55698,692.4951,484.904,692.76764C485.27576,693.06506,485.22623,693.1396,484.63135,693.6352L483.9622,694.1803L486.51495,701.8883C487.9028,706.151,489.26593,709.9927,489.51376,710.46356C489.9351,711.25665,489.9351,711.30615,489.53854,711.4302C488.9685,711.60364,481.75644,714.87494,473.67694,718.6421C469.95935,720.37695,466.78702,721.76483,466.61356,721.6906C466.44006,721.64105,465.9196,720.69916,465.4735,719.63354C465.0026,718.543,463.83783,716.06476,462.87122,714.082C439.6487,666.0508,399.52374,628.00757,350.45175,607.51135C330.94693,599.3575,309.97974,594.1034,288.86404,592.0214C280.63577,591.22845,276.59592,591.0303,267.54993,591.0303C248.73892,591.03015,231.91083,593.112,214.38861,597.5732C168.43944,609.2959,127.99223,635.3437,98.25166,672.44507C76.5906,699.43494,61.74511,731.20764,54.929558,765.2112C51.707645,781.2463,49.92323,803.03125,50.790672,815.8195C50.96417,818.1246,51.187206,821.6934,51.33592,823.75055C53.715176,858.8692,65.561844,894.28534,85.11629,924.6204C98.40042,945.2408,115.60042,964.0269,134.9318,978.9964C169.85214,1006.03534,211.63762,1021.69885,255.28195,1024.1277C261.18054,1024.45,273.6716,1024.4498,279.5701,1024.1276C295.4318,1023.2355,311.71475,1020.5093,326.90726,1016.17206C400.3169,995.15546,457.71616,936.54144,477.09717,862.7849C480.21988,850.8887,482.153,839.835,483.44174,826.3525C483.9622,820.8504,484.21,800.4782,483.8135,794.2824C483.02045,782.163,481.08725,768.9782,478.55933,758.46967C478.01407,756.21436,477.6671,754.30597,477.76627,754.23157C477.89017,754.1325,480.46768,752.9181,483.54083,751.5054C491.4469,747.887,502.327,742.43463,503.4423,741.5424C504.13623,740.99725,504.48315,740.87335,504.65668,741.0468C504.85492,741.24506,504.85492,741.4185,504.6319,741.6663C504.40884,741.96375,505.02844,743.0791,507.97772,747.5649C514.4215,757.45374,513.77716,756.5862,514.84283,756.51184C516.4786,756.38794,516.05725,757.18115,513.2319,759.4611C511.844,760.6012,510.82782,761.54297,510.9765,761.5927C511.1253,761.64215,512.414,761.29504,513.8267,760.79944C517.5939,759.4611,517.5939,759.4611,518.90735,761.54297C520.4191,763.9718,521.3609,765.85535,521.58405,766.87146C521.68317,767.3423,521.9558,768.0859,522.2037,768.53204L522.6497,769.32526L521.93097,769.57306C521.5345,769.6971,521.2123,769.96954,521.2123,770.16785C521.2123,770.3661,521.6088,771.5557,522.0797,772.7948C522.55054,774.0092,522.94714,775.29803,522.94714,775.6202C522.94714,776.09106,522.4515,776.6115,520.7166,777.9003C519.50214,778.84216,518.53564,779.66003,518.61,779.7096C518.65955,779.78394,519.7996,779.51135,521.11316,779.13947C523.8641,778.32153,524.11194,778.3712,524.63245,780.0317C524.9546,780.9734,526.7143,785.8806,530.03534,795.0755C530.5063,796.3395,530.87805,797.47943,530.87805,797.60333C530.87805,797.72723,529.68835,798.7929,528.2261,800.0074C526.5408,801.3952,525.72296,802.21313,525.9708,802.26263C526.19385,802.3122,527.4082,801.9405,528.69696,801.44476C529.96094,800.94916,531.225,800.5278,531.4976,800.50305C531.8941,800.4534,532.1668,800.9988,533.23236,803.92316C534.2734,806.82294,534.5955,807.44257,535.1408,807.71515C535.5621,807.91345,535.9587,808.4339,536.23126,809.15247C536.62787,810.1934,536.7269,810.2678,537.34656,810.1439C538.04047,810.02014,538.3131,810.3173,538.3131,811.25916C538.3131,811.5071,538.66003,812.82056,539.08136,814.1589C539.50275,815.47253,540.17194,817.55426,540.54364,818.7935C541.2623,821.07367,542.47687,824.94006,543.76556,828.95496C544.1621,830.1694,544.9799,832.7964,545.5995,834.77905C546.2191,836.7617,548.5488,844.2216,550.8289,851.3594C553.45605,859.68695,554.8688,864.5197,554.7696,864.8667C554.44745,865.9571,552.4399,871.1617,551.72125,872.77264C550.829,874.78015,550.7795,875.02795,551.4237,874.7058C551.96906,874.40845,554.12524,871.2362,555.68665,868.41077C557.1489,865.75885,558.1155,864.6931,560.4699,863.15656C563.9644,860.90125,564.584,859.86035,564.584,856.41534C564.584,855.22577,564.41046,853.21826,564.237,852.00385C564.03864,850.7647,563.32,846.2044,562.626,841.8425C561.9321,837.4806,561.0894,831.85455,560.74243,829.3267C560.17236,825.0638,559.7758,821.9162,557.8922,806.1538C557.4958,802.8822,556.77704,796.9093,556.3061,792.89453C555.8104,788.8794,555.0669,782.6835,554.6703,779.1394C554.249,775.6201,553.8277,772.0512,553.7038,771.2086C553.5799,770.3907,553.2081,767.2926,552.9107,764.3187C552.43976,759.684,552.415,758.86615,552.71246,758.6679C552.9107,758.5439,553.85254,758.2217,554.7943,757.94916C562.17993,755.8177,566.83923,753.41376,570.77985,749.6961C572.713,747.86206,573.13434,746.87085,573.13434,744.07025C573.13434,742.03796,573.03516,741.5175,572.46515,740.27826C571.62256,738.469,569.3672,736.21375,567.5579,735.3215C563.71643,733.4627,560.3459,733.66095,556.15735,735.9907C553.2081,737.6264,550.9281,738.66754,550.53156,738.5187C550.259,738.3949,550.2093,738.1718,550.3085,737.6761C550.40765,737.3044,550.58105,735.2225,550.70496,733.04156C551.0272,726.9447,551.91943,721.0213,552.7868,718.9146C552.98505,718.49335,553.4808,717.72504,553.9268,717.2047C555.43866,715.49445,556.80176,714.7757,562.4772,712.694C563.8404,712.19824,566.1205,711.2316,567.5579,710.56256C568.9954,709.8686,576.90155,706.1759,585.15454,702.30945C609.16986,691.0576,618.26556,686.6957,623.3215,683.8951C628.72455,680.9211,638.5139,672.84143,647.13873,664.26624C655.04486,656.3849,657.64716,651.99817,655.61487,650.08984C654.7226,649.272,654.1526,648.9746,652.393,648.52844C647.26263,647.1654,636.68,647.8098,625.30426,650.1643C612.2431,652.8904,606.6667,655.1953,565.82306,674.9233C544.0381,685.4317,538.4866,688.0587,537.96606,688.0587C537.79254,688.0587,536.6526,687.464,535.4381,686.72034C534.2237,686.00165,531.4479,684.36584,529.2669,683.102C527.086,681.86273,524.90497,680.54926,524.43414,680.2023C523.1454,679.26044,521.4601,677.57513,521.4601,677.253C521.4601,676.9308,522.97186,675.88995,524.0624,675.4934C524.48364,675.31976,526.1193,674.7993,527.7055,674.3037C530.8036,673.3618,531.3983,672.9653,532.8853,670.8092C534.47156,668.4795,534.9424,667.09155,534.9424,664.51404C534.9671,662.35785,534.8929,662.03564,534.174,660.5487C533.75275,659.65643,533.0836,658.59076,532.687,658.1446C531.05133,656.2611,527.4329,654.84827,524.2853,654.84827C520.69165,654.84827,514.6693,657.5002,509.43994,661.4163C508.25027,662.3085,507.13504,663.02716,506.96152,663.02716C506.78802,663.02716,503.4918,659.87964,499.60077,656.01337C493.05777,649.51996,487.2584,643.59656,468.42273,624.11664C446.95987,601.8854,436.1542,591.0303,435.01416,590.4354C433.89893,589.8655,431.89142,589.5927,430.99915,589.8902 Z M259.17297,651.82495L259.22253,694.9983L257.0663,694.9983C248.78854,694.9983,233.07562,693.9574,220.70851,692.6192C208.56447,691.30566,191.3397,688.6042,191.3397,688.0094C191.3397,687.71204,194.21461,680.25214,195.62727,676.9062C199.74136,667.1661,204.10336,658.54126,208.76273,650.8831C219.96501,632.5185,232.4065,619.8538,245.88882,613.1125C250.00302,611.0555,257.46292,608.42834,258.75168,608.5771C259.07388,608.62665,259.12344,613.63293,259.17297,651.82495 Z M278.65308,609.1225C294.71298,613.31085,309.8806,625.9753,323.33826,646.422C329.88123,656.385,336.4737,669.44617,341.90134,683.2754C342.64487,685.20856,343.3388,687.11694,343.41318,687.5135L343.5619,688.2323L340.7365,688.7775C327.37796,691.25604,310.15326,693.33777,295.80344,694.2548C290.40054,694.5771,280.5366,694.9983,277.90952,694.9983L275.85245,694.9983L275.85248,651.7507C275.85248,627.95807,275.9516,608.50275,276.05078,608.50275C276.14987,608.50275,277.31476,608.7753,278.65308,609.1225 Z M213.19897,617.0533C201.05496,629.74255,190.37311,646.39734,181.4757,666.49677C179.76561,670.3383,176.41985,678.6906,175.23018,682.06116L174.41237,684.36597L173.64403,684.19257C169.97606,683.4243,156.5184,679.18634,150.57031,676.95575C148.61237,676.2372,143.45732,674.1055,141.27635,673.13904C136.84004,671.1811,127.14961,665.92694,127.14961,665.50543C127.14961,665.233,132.25505,660.3505,135.57611,657.426C152.30516,642.7789,171.56221,630.8083,191.46356,622.6791C198.75003,619.7298,203.55814,618.0446,212.90164,615.2192C215.60306,614.4013,215.62784,614.5005,213.19897,617.0533 Z M326.41147,616.55743C346.13943,622.6294,365.1238,631.9482,382.22464,643.9436C386.51224,646.9424,392.63388,651.6762,396.67355,655.0964C401.1347,658.88837,407.975,665.28253,407.8263,665.53033C407.5785,665.90204,402.99347,668.50433,398.90414,670.58624C389.58545,675.2951,377.04477,679.9544,364.4546,683.3499C362.4223,683.89514,360.6875,684.26685,360.58838,684.14294C360.48917,684.04376,359.84485,682.4081,359.12607,680.4997C352.23615,661.9365,343.71057,645.4059,334.21838,632.1465C330.22815,626.5949,324.75092,620.0273,321.23163,616.55743C320.389,615.7396,319.71985,614.9962,319.71985,614.8722C319.71985,614.5499,320.76074,614.8227,326.41147,616.55743 Z M117.78133,679.459C126.80264,685.2831,139.56631,691.0826,152.92477,695.4693C158.30287,697.22906,164.10231,698.96375,167.05156,699.7073C168.21638,700.0047,169.18297,700.27734,169.20772,700.30206C169.25734,700.3269,169.05907,701.14465,168.78639,702.0865C167.81987,705.4076,165.3167,715.2469,164.35014,719.5344C159.19508,742.23645,155.87408,769.15173,155.2297,793.1177L155.081,799.3383L111.36236,799.3384L67.66845,799.33844L67.66845,798.24805C67.66845,794.2083,69.05634,781.32074,70.27073,774.1829C73.641335,754.23175,79.51511,736.43695,88.85858,717.92365C93.9393,707.8365,98.42516,700.4012,104.695465,691.65247C108.51219,686.29926,115.00552,678.1452,115.42686,678.1452C115.60036,678.1452,116.66605,678.7402,117.78133,679.459 Z M422.771,681.7885C432.28793,693.5857,440.0204,705.6058,446.6873,718.9643C448.91782,723.4006,451.3219,728.7539,451.3219,729.2248C451.3219,729.42303,449.5622,730.46405,447.25735,731.6288C441.8545,734.3797,433.70056,738.91516,429.26425,741.64136C424.01013,744.88824,420.24307,747.63916,417.86386,749.9938C414.6171,753.1908,415.21198,753.16595,411.6431,750.2167C404.6788,744.46686,394.79007,736.26337,384.4056,727.58905C378.33356,722.5331,373.02982,718.14636,372.60852,717.849C371.96414,717.3532,371.74103,717.3285,371.14624,717.55145C370.77448,717.7003,370.37787,717.72504,370.2788,717.6258C370.17966,717.52673,369.56003,715.2467,368.9157,712.5948C368.2713,709.94293,367.30475,706.2254,366.78424,704.3418C365.8425,701.0207,365.669,700.2028,365.94165,700.2028C366.36295,700.2028,374.88858,697.7492,379.3249,696.3367C393.69952,691.8013,407.55362,685.63,417.29376,679.3846C418.35947,678.71545,419.35074,678.1452,419.52423,678.1452C419.67297,678.1452,421.13513,679.781,422.771,681.7885 Z M192.5789,705.38275C211.51375,708.8526,234.01746,711.083,255.77762,711.6778C257.36377,711.7275,258.77643,711.82654,258.92517,711.9257C259.1482,712.07434,259.22256,723.05365,259.22256,755.7187L259.22256,799.33826L215.45436,799.3383L171.68614,799.33826L171.85966,794.1834C172.7271,768.3091,176.3207,741.6911,182.07057,718.4439C183.16106,714.03235,184.9702,707.2911,185.78813,704.5898C185.88725,704.2427,186.0855,704.16833,186.58122,704.2675C186.95293,704.3666,189.6544,704.8623,192.5789,705.38275 Z M350.74915,710.3642C357.7878,735.9411,362.2736,766.2519,363.01718,793.4397L363.16583,799.3382L319.52167,799.3383L275.85248,799.33813L275.85245,755.61957L275.85245,711.87616L276.91812,711.75226C277.48822,711.67773,280.5366,711.55396,283.6841,711.47955C301.57812,711.05835,325.02356,708.60455,342.64487,705.2835C345.79236,704.7135,348.51862,704.2426,348.71695,704.26746C348.98953,704.2923,349.55957,706.0023,350.74915,710.3642 Z M377.19348,734.4045C389.95718,754.306,399.52374,769.4738,399.52374,769.79614C399.52374,769.8952,399.02808,770.5397,398.40845,771.25836C397.1941,772.6463,397.04535,773.2659,397.76413,773.9103C398.13583,774.25714,398.3837,774.282,399.30072,774.05896C402.39868,773.2907,408.3468,772.3736,408.6442,772.64624C409.18948,773.0675,408.69376,773.26587,405.4719,773.8358C403.76178,774.1333,402.27478,774.4803,402.17566,774.55457C402.0517,774.6536,403.21658,778.2969,404.72836,782.6339C407.20676,789.6479,410.42868,799.0906,410.42868,799.264C410.42868,799.31366,403.5883,799.33826,395.21143,799.3383L379.99405,799.3382L379.84534,796.042C379.77097,794.2576,379.57275,790.0444,379.4488,786.69867C378.65573,768.9036,376.64822,751.15845,373.37677,733.2397C372.7572,729.89386,372.26154,727.0933,372.26154,727.01886C372.26154,726.7712,372.85632,727.6386,377.19348,734.4045 Z M463.14377,766.1279C465.05222,775.00073,466.63834,786.97125,467.10922,795.79425L467.3075,799.33826L446.06778,799.33826C434.36972,799.33826,424.8032,799.31354,424.77844,799.2639C424.67923,798.9914,424.3819,773.14185,424.48102,772.9189C424.6297,772.52234,429.1899,771.2335,432.73398,770.5892C439.25214,769.37463,448.5461,766.4253,458.63306,762.3112C460.14496,761.71643,461.5328,761.22064,461.73108,761.24536C462.00372,761.29486,462.3755,762.55896,463.14377,766.1279 Z M155.081,818.1739C155.79974,846.00635,158.94731,872.1781,164.59798,896.93695C165.56453,901.17505,168.04294,910.8406,169.20773,914.83075C169.28214,915.1531,168.43948,915.4752,165.01932,916.4169C146.53056,921.6217,130.12366,928.58594,118.47533,936.19446L115.87301,937.88L114.78247,936.715C110.69317,932.2788,102.3906,920.90295,97.35948,912.8482C92.82402,905.58685,86.80159,894.0623,83.65403,886.6023C75.79756,868.0145,70.915146,849.67444,68.808495,830.78894C68.06501,824.17194,67.519745,816.91016,67.74282,816.3402C67.891495,815.9684,71.485176,815.94354,111.461494,815.99316L155.03146,816.06744L155.081,818.1739 Z M259.09863,816.36475C259.173,816.61255,259.22256,836.3405,259.22256,860.20734L259.22256,903.62866L254.71194,903.7773C237.36325,904.3969,225.4671,905.3635,210.79503,907.27203C204.153,908.13947,193.04982,909.92377,188.46481,910.86554C187.12646,911.13806,186.01123,911.3363,185.98642,911.2867C185.9368,911.2371,185.44115,909.60156,184.87117,907.6188C178.87352,886.32947,174.61064,862.1157,172.87578,839.1163C172.1075,828.7566,171.56227,817.0586,171.83488,816.34C171.9836,815.9682,175.70113,815.9435,215.47917,815.94354C256.66983,815.9435,258.97473,815.9682,259.09863,816.36475 Z M363.0915,818.8926C363.0915,828.21124,361.48056,848.33594,359.721,860.9261C358.15964,872.2027,355.706,885.26373,353.30197,895.15247C351.46805,902.7612,349.08875,911.36096,348.86566,911.36096C348.8161,911.36096,347.4034,911.08844,345.71814,910.74146C332.48355,908.04016,312.3343,905.5123,296.29913,904.5456C290.54926,904.1986,278.90088,903.6782,276.79428,903.6782L275.8525,903.6781L275.8525,859.98425C275.85248,835.9437,275.92685,816.19116,276.026,816.1168C276.1003,816.0177,295.7291,815.9434,319.6455,815.94354L363.0915,815.9434L363.0915,818.8926 Z M416.05463,816.24084C416.2033,816.41437,417.34335,819.66113,418.6074,823.45306C419.8713,827.2201,420.98654,830.3924,421.11038,830.46686C421.23434,830.5411,422.2009,830.1694,423.2666,829.64886L425.17496,828.70703L425.17496,822.3872L425.17496,816.0674L446.21637,815.99304L467.2579,815.9435L467.10922,819.63617C466.44006,834.90314,462.8217,854.0361,457.59232,869.8483C449.36404,894.7312,437.09598,916.6647,419.87125,937.11145L419.1773,937.97894L416.10416,935.9714C412.7831,933.8151,408.1733,931.18805,404.5301,929.354C396.0788,925.11597,382.84427,920.13446,370.8489,916.68945C367.30484,915.6733,365.81778,915.153,365.81778,914.88025C365.81778,914.7068,366.3135,912.7241,366.9083,910.5432C374.26913,883.7024,378.48233,855.02747,379.69672,823.1555C379.84534,819.41315,380.0189,816.2655,380.09314,816.1664C380.16754,816.0425,388.22235,815.9434,398.01193,815.94354C411.96527,815.9436,415.88113,816.01794,416.05463,816.24084 Z M259.12354,963.5314L259.1235,1006.655L257.90912,1006.5808C256.02548,1006.48175,250.12692,1004.3997,246.08722,1002.41693C242.07227,1000.4096,237.68549,997.58417,233.86874,994.5358C230.62215,991.93353,223.757,985.118,220.78294,981.4996C210.39848,968.9092,201.45152,953.2211,194.06596,934.658C191.63712,928.5612,191.24054,927.4955,191.3645,927.37146C191.78583,926.92554,209.15926,924.1745,217.85838,923.1583C230.64682,921.6465,250.30035,920.2832,257.88425,920.3823L259.12344,920.4071L259.12354,963.5314 Z M285.6421,920.65485C303.0404,921.2498,327.22937,923.976,342.84323,927.1235C343.215,927.1979,343.5124,927.42096,343.5124,927.6192C343.5124,928.68494,337.91122,942.0435,334.54068,949.03265C326.75854,965.14215,318.18335,977.8315,308.36896,987.79456C300.26465,995.998,292.75507,1001.1531,283.83295,1004.64746C281.52805,1005.5397,277.19086,1006.7788,276.32343,1006.7788C275.85254,1006.7788,275.85254,1005.7876,275.85254,963.5064L275.85248,920.2584L278.77704,920.3823C280.36313,920.4568,283.46112,920.5806,285.6421,920.65485 Z M174.6354,931.73334C174.98236,932.89825,178.47696,941.8452,179.76569,944.94324C188.83658,966.5301,199.5432,983.75476,212.4804,997.60895C214.06648,999.2942,215.33046,1000.7317,215.2809,1000.78125C214.98347,1001.0787,201.20372,996.568,195.30513,994.2631C170.7196,984.64703,149.15767,970.94165,129.628,952.5767L127.29837,950.3461L128.7606,949.4045C133.71736,946.23206,142.09428,942.118,149.95076,939.01996C154.43663,937.2356,164.00317,934.03827,168.91037,932.67523C170.96744,932.10516,172.90054,931.5599,173.2475,931.436C174.23886,931.11383,174.43716,931.1634,174.6354,931.73334 Z M365.0743,932.40265C376.54913,935.64923,386.8096,939.3914,395.21146,943.4314C399.0529,945.2903,404.50534,948.28906,406.4137,949.5777L407.50418,950.3212L406.9093,950.94086C405.3976,952.6014,399.17685,958.20264,395.1866,961.5236C378.18497,975.62537,359.00226,986.87744,338.6796,994.6348C333.52457,996.6175,320.51303,1000.8309,319.59598,1000.8309C319.5217,1000.8309,320.98392,999.19507,322.84274,997.1628C336.07727,982.9865,347.3043,964.4233,356.5238,941.5973C357.63916,938.7967,359.00226,935.32697,359.5227,933.86475C360.0679,932.3778,360.53882,931.1881,360.61316,931.1881C360.6876,931.1881,362.69504,931.7333,365.0743,932.40265 Z"/> </g> </g> </g> </svg>